<svg width="701" height="632" viewBox="0 0 701 632" fill="none" xmlns="http://www.w3.org/2000/svg">
<path fill-rule="evenodd" clip-rule="evenodd" d="M349.55 38.8152C399.03 27.4902 445.059 -5.39568 495.301 1.83444C547.753 9.38261 595.838 40.4765 631.768 79.4282C668.49 119.238 701.754 170.223 700.573 224.371C699.385 278.909 643.942 316.135 625.49 367.471C609.607 411.656 624.807 464.349 599.988 504.207C574.684 544.842 533.407 578.183 486.991 589.888C441.404 601.384 396.17 561.28 349.55 567.359C293.553 574.661 246.566 647.965 193.691 628.133C143.068 609.147 158.644 525.883 125.361 483.274C92.5289 441.241 16.1603 435.266 2.72303 383.65C-10.5787 332.555 48.6252 289.943 61.7152 238.793C74.3949 189.247 42.7811 124.966 78.3329 88.2009C115.086 50.1931 180.724 71.4016 232.74 61.93C272.285 54.7292 310.368 47.7834 349.55 38.8152Z" fill="#754F23"/>
</svg>
