<svg width="54" height="48" viewBox="0 0 54 48" fill="none" xmlns="http://www.w3.org/2000/svg">
<path d="M21.694 9.45466C23.0444 8.88835 23.6107 7.27655 23.0008 5.96968L20.8663 1.48278C20.2564 0.219911 18.7753 -0.346833 17.4684 0.219911C13.7657 1.78815 10.5856 3.83557 8.05901 6.31862C4.96609 9.23685 2.8751 12.5911 1.74249 16.2939C0.609871 20.0407 0 25.137 0 31.6278V45.0014C0 46.439 1.17618 47.6151 2.61373 47.6151H19.7337C21.1712 47.6151 22.3474 46.439 22.3474 45.0014V27.8815C22.3474 26.4435 21.1712 25.2677 19.7337 25.2677H11.544C11.6311 20.8675 12.6766 17.3394 14.5933 14.6817C16.1616 12.548 18.5139 10.8055 21.694 9.45466Z" fill="#2F2F2F"/>
<path d="M52.4473 9.45485C53.7977 8.88854 54.3636 7.27674 53.7542 5.96987L51.6196 1.52697C51.0097 0.263662 49.5286 -0.302647 48.2218 0.263662C44.5625 1.8319 41.4256 3.87932 38.8559 6.31881C35.7625 9.28103 33.6284 12.6353 32.4954 16.3381C31.3627 19.9969 30.7969 25.0941 30.7969 31.6284V45.002C30.7969 46.4396 31.9731 47.6158 33.4106 47.6158H50.5305C51.9681 47.6158 53.1443 46.4396 53.1443 45.002V27.8821C53.1443 26.4441 51.9681 25.2684 50.5305 25.2684H42.2973C42.3844 20.8681 43.4303 17.34 45.3466 14.6823C46.9149 12.5482 49.2672 10.8057 52.4473 9.45485Z" fill="#2F2F2F"/>
</svg>
