<svg width="17" height="28" viewBox="0 0 17 28" fill="none" xmlns="http://www.w3.org/2000/svg">
<path d="M7.864 0.816693C9.208 0.816693 10.24 0.960694 10.96 1.24869C11.68 1.53669 12.304 1.84869 12.832 2.18469C13.12 2.35269 13.348 2.48469 13.516 2.58069C13.708 2.65269 13.888 2.68869 14.056 2.68869C14.296 2.68869 14.464 2.55669 14.56 2.29269C14.68 2.02869 14.776 1.63269 14.848 1.10469H15.676C15.652 1.56069 15.616 2.08869 15.568 2.68869C15.544 3.28869 15.52 4.09269 15.496 5.10069C15.496 6.08469 15.496 7.39269 15.496 9.02469H14.668C14.596 7.80069 14.32 6.62469 13.84 5.49669C13.384 4.36869 12.724 3.44469 11.86 2.72469C11.02 1.98069 9.94 1.60869 8.62 1.60869C7.444 1.60869 6.46 1.95669 5.668 2.65269C4.9 3.34869 4.516 4.28469 4.516 5.46069C4.516 6.46869 4.768 7.32069 5.272 8.01669C5.776 8.68869 6.484 9.34869 7.396 9.99669C8.332 10.6207 9.436 11.3407 10.708 12.1567C11.884 12.9247 12.94 13.6927 13.876 14.4607C14.812 15.2047 15.544 16.0327 16.072 16.9447C16.624 17.8567 16.9 18.9727 16.9 20.2927C16.9 21.8527 16.516 23.1487 15.748 24.1807C14.98 25.2127 13.948 25.9807 12.652 26.4847C11.356 26.9887 9.94 27.2407 8.404 27.2407C6.988 27.2407 5.86 27.0967 5.02 26.8087C4.204 26.5207 3.496 26.2207 2.896 25.9087C2.368 25.5727 1.96 25.4047 1.672 25.4047C1.432 25.4047 1.252 25.5367 1.132 25.8007C1.036 26.0647 0.952 26.4607 0.88 26.9887H0.0520001C0.1 26.4367 0.124 25.7887 0.124 25.0447C0.148 24.3007 0.16 23.3407 0.16 22.1647C0.184 20.9647 0.196 19.4527 0.196 17.6287H1.024C1.12 19.1647 1.384 20.6047 1.816 21.9487C2.272 23.2687 2.956 24.3367 3.868 25.1527C4.804 25.9687 6.04 26.3767 7.576 26.3767C8.416 26.3767 9.172 26.2327 9.844 25.9447C10.54 25.6327 11.092 25.1647 11.5 24.5407C11.908 23.8927 12.112 23.0767 12.112 22.0927C12.112 21.1087 11.884 20.2447 11.428 19.5007C10.972 18.7567 10.336 18.0607 9.52 17.4127C8.704 16.7647 7.744 16.1047 6.64 15.4327C5.512 14.7127 4.456 13.9807 3.472 13.2367C2.488 12.4927 1.696 11.6527 1.096 10.7167C0.52 9.75669 0.232 8.60469 0.232 7.26069C0.232 5.77269 0.592 4.56069 1.312 3.62469C2.032 2.66469 2.968 1.95669 4.12 1.50069C5.296 1.04469 6.544 0.816693 7.864 0.816693Z" fill="#2F2F2F"/>
</svg>
